<?xml version="1.0" encoding="UTF-8" standalone="no"?>
<!-- Created with Inkscape (http://www.inkscape.org/) -->

<svg
   xmlns:dc="http://purl.org/dc/elements/1.1/"
   xmlns:cc="http://creativecommons.org/ns#"
   xmlns:rdf="http://www.w3.org/1999/02/22-rdf-syntax-ns#"
   xmlns:svg="http://www.w3.org/2000/svg"
   xmlns="http://www.w3.org/2000/svg"
   xmlns:sodipodi="http://sodipodi.sourceforge.net/DTD/sodipodi-0.dtd"
   xmlns:inkscape="http://www.inkscape.org/namespaces/inkscape"
   width="210mm"
   height="297mm"
   id="svg2"
   version="1.1"
   inkscape:version="0.48.5 r10040"
   sodipodi:docname="Schnuller.svg">
  <defs
     id="defs4" />
  <sodipodi:namedview
     id="base"
     pagecolor="#ffffff"
     bordercolor="#666666"
     borderopacity="1.0"
     inkscape:pageopacity="0.0"
     inkscape:pageshadow="2"
     inkscape:zoom="0.35"
     inkscape:cx="355.71429"
     inkscape:cy="482.62276"
     inkscape:document-units="px"
     inkscape:current-layer="layer1"
     showgrid="true"
     inkscape:window-width="1440"
     inkscape:window-height="834"
     inkscape:window-x="0"
     inkscape:window-y="27"
     inkscape:window-maximized="1">
    <inkscape:grid
       type="xygrid"
       id="grid2985" />
  </sodipodi:namedview>
  <metadata
     id="metadata7">
    <rdf:RDF>
      <cc:Work
         rdf:about="">
        <dc:format>image/svg+xml</dc:format>
        <dc:type
           rdf:resource="http://purl.org/dc/dcmitype/StillImage" />
        <dc:title></dc:title>
      </cc:Work>
    </rdf:RDF>
  </metadata>
  <g
     inkscape:label="Ebene 1"
     inkscape:groupmode="layer"
     id="layer1">
    <g
       id="g3817"
       transform="matrix(0.73285565,0,0,0.73285565,108.10834,156.22132)">
      <path
         inkscape:connector-curvature="0"
         id="rect2989"
         d="M 772.13266,75.08594 C 694.0278,-3.01892 561.06315,3.31273 475.14781,89.22807 411.39764,152.97824 391.497,242.61541 417.36393,316.5408 c -10.33038,9.39837 -21.9506,16.60023 -34.27259,21.63305 -120.98905,-115.02029 -219.87556,-191.5722 -233.21265,-178.2351 -12.89933,12.89933 58.28525,105.84299 167.03188,221.39071 -7.77109,1.69351 -14.57876,5.1654 -19.95367,10.54031 -23.43146,23.43146 -10.76816,74.08466 28.28427,113.13709 39.05243,39.05242 89.70563,51.71572 113.13708,28.28427 5.20747,-5.20747 8.63719,-11.75409 10.38564,-19.22447 123.39137,117.82282 224.98458,196.80462 238.51595,183.27324 13.86965,-13.86964 -69.45254,-120.2674 -192.17836,-247.81883 4.03817,-9.76551 9.43329,-19.08904 16.21926,-27.66555 77.09929,37.07664 177.23989,19.64515 246.66978,-49.78474 85.91534,-85.91534 92.24699,-218.87999 14.14214,-296.98484 z"
         style="fill:#000000" />
      <path
         transform="matrix(0.70710678,0.70710678,-0.70710678,0.70710678,639.46175,-414.49712)"
         d="m 720,1112.3622 c 0,165.6854 -125.36027,300 -280,300 -154.63973,0 -280,-134.3146 -280,-300 0,-165.68544 125.36027,-300.00002 280,-300.00002 154.63973,0 280,134.31458 280,300.00002 z"
         sodipodi:ry="300"
         sodipodi:rx="280"
         sodipodi:cy="1112.3622"
         sodipodi:cx="440"
         id="path3024"
         style="fill:none;stroke:#000000;stroke-width:11.39999962;stroke-miterlimit:4;stroke-opacity:1;stroke-dasharray:none"
         sodipodi:type="arc" />
    </g>
  </g>
</svg>
